<svg width="30" height="40" viewBox="0 0 25 35" fill="none" xmlns="http://www.w3.org/2000/svg"><path d="m22.067 8.128-.023-.014-.055-.016a.13.13 0 0 0 .078.03ZM22.411 10.578l-.026.008.026-.008ZM22.073 8.111a.04.04 0 0 1-.008-.002v.006a.016.016 0 0 0 .008-.004ZM22.388 10.565l.04-.023.014-.008.014-.014a.228.228 0 0 0-.068.045ZM22.133 8.176l-.038-.037-.027-.014a.109.109 0 0 0 .065.051ZM12.384 31.945a.202.202 0 0 0-.08.061l.025-.015c.017-.016.04-.034.055-.046ZM18.05 30.83c0-.034-.017-.028-.013.097 0-.01.004-.02.006-.03l.007-.066ZM17.462 31.945a.202.202 0 0 0-.08.061l.025-.015c.017-.016.04-.034.055-.046ZM8.398 32.215a.167.167 0 0 0-.083-.04l.067.034.016.005ZM7.505 31.353a.265.265 0 0 0-.032-.103.855.855 0 0 1 .031.102l.001.001Z" fill="#000"/><path d="M13.528 15.981c-1.232.528-2.63 1.125-4.44 1.125a8.409 8.409 0 0 1-2.242-.309L8.098 29.66a2.149 2.149 0 0 0 2.143 1.973s1.776.092 2.368.092c.638 0 2.551-.093 2.551-.093a2.149 2.149 0 0 0 2.142-1.972l1.341-14.213c-.6-.204-1.204-.34-1.887-.34-1.18-.001-2.13.405-3.228.875Z" fill="#FD0"/><path d="m2.966 10.504.021.02.014.008a.216.216 0 0 0-.035-.028Z" fill="#000"/><path d="m24.438 9.312-.189-.951c-.17-.854-.553-1.66-1.43-1.97-.28-.098-.6-.14-.815-.345-.215-.204-.279-.522-.329-.816-.092-.54-.179-1.08-.273-1.62-.082-.463-.146-.984-.36-1.41-.276-.57-.85-.904-1.421-1.125a8.192 8.192 0 0 0-.894-.277C17.3.422 15.8.283 14.332.204a36.893 36.893 0 0 0-5.285.088c-1.308.12-2.686.263-3.93.716-.454.165-.922.364-1.267.715-.424.431-.562 1.098-.253 1.636.22.382.593.652.988.83.515.23 1.053.405 1.604.522 1.536.34 3.127.473 4.696.53 1.74.07 3.482.013 5.212-.17.428-.047.856-.104 1.282-.17.502-.077.825-.733.677-1.191-.177-.547-.653-.76-1.192-.677a20.9 20.9 0 0 1-.237.036l-.057.008a28.992 28.992 0 0 1-1.68.164 38.078 38.078 0 0 1-5.05.01 31.847 31.847 0 0 1-1.653-.154l-.164-.02-.035-.005-.17-.025a17.832 17.832 0 0 1-1.034-.184.155.155 0 0 1 0-.304h.007a16.783 16.783 0 0 1 1.196-.21h.003c.187-.013.376-.046.563-.068 1.625-.17 3.26-.227 4.893-.173a32.936 32.936 0 0 1 2.882.207l.195.025.13.018c.383.057.762.126 1.14.208.56.121 1.28.161 1.529.775.079.194.115.41.159.615l.055.26.004.015.396 1.845a.339.339 0 0 1-.284.405h-.004l-.08.011-.08.01a49.006 49.006 0 0 1-2.259.24 52.436 52.436 0 0 1-4.517.182 52.967 52.967 0 0 1-6.71-.434l-.183-.025-.415-.06c-.464-.07-.926-.155-1.39-.23-.56-.093-1.096-.047-1.603.23a2.332 2.332 0 0 0-.965 1c-.219.453-.284.945-.382 1.43-.097.486-.25 1.01-.192 1.508.124 1.076.876 1.95 1.958 2.146a56.688 56.688 0 0 0 16.203.537.69.69 0 0 1 .764.758l-.102.995a87401.69 87401.69 0 0 1-1.454 14.153c-.059.585-.067 1.189-.178 1.767-.175.91-.791 1.468-1.69 1.673a11.79 11.79 0 0 1-2.508.293c-.936.005-1.871-.036-2.807-.031-1 .005-2.223-.087-2.994-.83-.678-.653-.771-1.676-.864-2.56-.123-1.171-.245-2.341-.365-3.512l-.678-6.508-.44-4.21-.02-.209c-.053-.502-.409-.994-.97-.968-.48.02-1.024.429-.968.968l.325 3.122.673 6.457.573 5.504c.037.351.071.704.11 1.055.211 1.921 1.678 2.956 3.494 3.248 1.061.17 2.148.205 3.224.223 1.38.022 2.774.075 4.132-.175 2.011-.369 3.52-1.712 3.736-3.796l.184-1.805.613-5.97.667-6.504.306-2.98a.692.692 0 0 1 .557-.609c.575-.112 1.125-.303 1.534-.741.651-.697.78-1.606.55-2.522ZM2.8 9.955c.009-.004-.007.071-.014.106-.002-.053.001-.1.014-.106Zm.056.432c.004-.003.018.015.033.037-.022-.02-.036-.035-.034-.037Zm.055.072c.02.034.03.055 0 0Zm.11.09h.003c0 .003.005.006.007.01a.07.07 0 0 0-.01-.01Zm19.304-.134c-.207.197-.518.288-.826.334-3.45.512-6.95.77-10.438.656-2.496-.085-4.966-.362-7.438-.711-.242-.034-.504-.079-.67-.257-.314-.337-.16-1.015-.079-1.422.075-.372.218-.87.661-.922.692-.081 1.496.21 2.18.314a41.26 41.26 0 0 0 2.482.302c3.543.323 7.146.273 10.673-.2a44.483 44.483 0 0 0 1.922-.3c.569-.102 1.2-.294 1.543.295.236.401.267.938.23 1.392a.776.776 0 0 1-.24.52Z" fill="#000"/></svg>