<svg width="43" height="40" fill="none" xmlns="http://www.w3.org/2000/svg"><path fill-rule="evenodd" clip-rule="evenodd" d="M22.754 32.554c-.26.215-.545.307-.852.276-.43-.03-.783-.276-1.06-.737a3.671 3.671 0 0 1-.506-1.474 30.301 30.301 0 0 1-.323-2.811 82.054 82.054 0 0 1-.138-2.811c-.89.246-1.797.484-2.718.714-.922.23-1.828.453-2.719.668-.675.154-1.251.123-1.727-.092a2.62 2.62 0 0 1-1.129-.944 3.368 3.368 0 0 1-.53-1.383 3.895 3.895 0 0 1 .023-1.405c.891-2.181 1.958-4.301 3.202-6.36a59.682 59.682 0 0 1 4.354-6.22c.276-.246.699-.453 1.267-.622.568-.17 1.052-.146 1.451.069.061.061.107.1.138.115.031.015.062.054.092.115.031-.092.077-.26.139-.507.153-.368.368-.668.645-.898.276-.23.583-.3.921-.207.522.153.883.391 1.083.714.2.322.284.714.253 1.175a83.186 83.186 0 0 0-.944 5.368 86.508 86.508 0 0 0-.622 5.875 49.474 49.474 0 0 1 2.856-.576c.983-.169 2.012-.33 3.087-.483.184-.031.391-.031.622 0 .23.03.46.076.69.138.231.061.415.153.554.276a.591.591 0 0 1 .207.461c0 .43-.246.83-.737 1.198a4.05 4.05 0 0 1-1.613.737c-.982.185-1.95.384-2.902.6a96.1 96.1 0 0 0-2.857.69 92.616 92.616 0 0 0-.022 3.595c.015 1.229.069 2.519.16 3.87.031.37-.084.661-.345.876Zm-5.939-15.09a37.637 37.637 0 0 0-2.971 6.198c.952-.277 1.927-.56 2.925-.853a98.836 98.836 0 0 1 3.11-.852c.123-3.564.583-7.189 1.382-10.875a1.698 1.698 0 0 1-.23.346 3.174 3.174 0 0 0-.23.3 51.11 51.11 0 0 0-3.986 5.736Z" fill="#161408"/><path fill-rule="evenodd" clip-rule="evenodd" d="M24.322 36.913c-3.926 1.323-8.297 1.593-12.124-.21-3.885-1.83-6.647-5.467-8.018-9.475-1.226-3.59-1.243-7.099-.451-10.44l.535-.702C9.03 9.906 14.853 4.056 22.878 3.171c8.915-.983 17.081 5.986 17.322 14.976.246 9.17-7.776 16.035-15.878 18.766Zm3.976-35.29C18.662-.417 10.947 5.599 5.105 12.71c1.92-4.372 5.063-8.36 8.42-11.731.45-.452-.24-1.284-.743-.866-4.943 4.098-9.018 9.915-10.474 16.255a95.832 95.832 0 0 0-2.22 3.247c-.392.6.628 1.303 1.05.712l.692-.966a20.58 20.58 0 0 0 .282 5.86c1.841 9.398 9.88 15.952 19.549 14.245 8.878-1.567 18.59-8.516 20.174-17.82 1.557-9.15-4.405-18.09-13.537-20.024Z" fill="#FD0"/></svg>