<svg width="42" height="41" fill="none" xmlns="http://www.w3.org/2000/svg"><mask id="a" mask-type="alpha" maskUnits="userSpaceOnUse" x="0" y="0" width="42" height="41"><path fill-rule="evenodd" clip-rule="evenodd" d="M0 .137h41.31V40.11H0V.137Z" fill="#fff"/></mask><g mask="url(#a)"><path fill-rule="evenodd" clip-rule="evenodd" d="M13.7 37.285c-4.013-1.03-7.826-3.184-10.054-6.781-2.262-3.652-2.598-8.206-1.565-12.314.926-3.678 2.823-6.63 5.307-9.002 7.583-2.745 15.99-4.756 23.474-.989 8.012 4.033 11.066 14.327 6.373 21.997-4.788 7.825-15.253 9.212-23.535 7.089ZM36.25 9.859c-6.971-6.96-16.718-6.118-25.49-3.336 3.992-2.62 8.798-4.252 13.45-5.251.624-.134.498-1.207-.152-1.131C17.68.885 11.095 3.543 6.422 8.067c-1.25.49-2.465 1.001-3.63 1.514-.656.29-.183 1.436.493 1.17.365-.144.735-.29 1.107-.434a20.576 20.576 0 0 0-2.956 5.069c-3.573 8.884-.4 18.76 8.64 22.596 8.298 3.522 20.228 2.985 26.622-3.955 6.288-6.826 6.156-17.572-.45-24.168Z" fill="#FFD200"/><path d="m21.525 30.516.091-.012c.277-.061.415-.246.415-.553a116.12 116.12 0 0 1-.207-8.962c.046-2.996.376-5.998.99-9.01 0-.183-.053-.383-.16-.598a2.304 2.304 0 0 0-.439-.6 2.462 2.462 0 0 0-.645-.46 1.555 1.555 0 0 0-.69-.184c-.185 0-.37.26-.554.783a17.375 17.375 0 0 0-.507 1.751c-.83 4.731-1.029 9.57-.599 14.515 0 .215.123.653.369 1.314.246.66.645 1.22 1.198 1.681.123.093.253.177.392.254.138.077.284.1.437.07l-.09.011Z" fill="#161408"/></g></svg>