<svg width="47" height="52" fill="none" xmlns="http://www.w3.org/2000/svg"><path fill-rule="evenodd" clip-rule="evenodd" d="M28.759 39.833c4.099-.603 8.116-2.348 10.708-5.692 2.63-3.395 3.441-7.89 2.843-12.083-.537-3.755-2.114-6.89-4.337-9.508C30.719 9.027 22.568 6.15 14.73 9.113c-8.39 3.172-12.503 13.09-8.637 21.21 3.943 8.282 14.207 10.756 22.665 9.51ZM9.192 10.2c7.66-6.193 17.265-4.336 25.698-.652-3.696-3.023-8.305-5.149-12.828-6.629-.606-.198-.369-1.252.27-1.109 6.265 1.407 12.535 4.739 16.71 9.727a95.794 95.794 0 0 1 3.452 1.885c.622.356.032 1.447-.612 1.111-.349-.18-.701-.364-1.056-.546a20.575 20.575 0 0 1 2.41 5.35c2.625 9.21-1.563 18.699-10.953 21.569-8.621 2.635-20.43.854-26.064-6.717C.68 26.742 1.933 16.068 9.192 10.2Z" fill="#FFD200"/><path d="M23.263 23.25c1.82.24 3.27.69 4.35 1.35 1.08.66 1.62 1.54 1.62 2.64 0 1.08-.64 2.15-1.92 3.21-1.26 1.06-2.8 1.89-4.62 2.49-1.8.6-3.63.9-5.49.9-1.84 0-2.76-.34-2.76-1.02 0-.18.59-.41 1.77-.69 1.2-.3 2.51-.61 3.93-.93 1.42-.34 2.72-.87 3.9-1.59 1.2-.74 1.8-1.59 1.8-2.55 0-.52-.36-.94-1.08-1.26-.72-.34-1.52-.58-2.4-.72-2.32-.34-3.48-.74-3.48-1.2 0-.16.03-.28.09-.36.16-.28.67-.67 1.53-1.17.86-.5 1.73-.99 2.61-1.47.9-.48 1.72-1.11 2.46-1.89.74-.78 1.11-1.57 1.11-2.37 0-.94-.51-1.41-1.53-1.41-.82 0-1.86.33-3.12.99-1.26.64-1.98.96-2.16.96-.16 0-.47-.21-.93-.63-.46-.44-.69-.77-.69-.99 0-.6.81-1.22 2.43-1.86 1.64-.64 3.09-.96 4.35-.96 1.26 0 2.32.43 3.18 1.29.88.86 1.32 1.85 1.32 2.97 0 1.1-.63 2.23-1.89 3.39-1.26 1.14-2.72 2.1-4.38 2.88Z" fill="#161408"/></svg>