<svg width="47" height="45" fill="none" xmlns="http://www.w3.org/2000/svg"><path fill-rule="evenodd" clip-rule="evenodd" d="M28.759 39.947c4.099-.604 8.116-2.349 10.708-5.693 2.63-3.395 3.441-7.89 2.843-12.083-.537-3.755-2.114-6.89-4.337-9.508-7.254-3.523-15.405-6.4-23.242-3.437-8.39 3.173-12.503 13.091-8.637 21.21 3.943 8.283 14.207 10.756 22.665 9.51ZM9.192 10.313c7.66-6.193 17.265-4.336 25.698-.653-3.696-3.023-8.305-5.149-12.828-6.628-.606-.198-.369-1.253.27-1.11 6.265 1.407 12.535 4.74 16.71 9.727a96.107 96.107 0 0 1 3.452 1.886c.622.355.032 1.446-.612 1.11l-1.056-.546a20.574 20.574 0 0 1 2.41 5.35c2.625 9.21-1.563 18.699-10.953 21.569-8.621 2.635-20.43.854-26.064-6.717-5.54-7.446-4.286-18.12 2.973-23.988Z" fill="#FFD200"/><path d="m17.567 30.175.127-.011a68.865 68.865 0 0 0 3.11-.392c1.152-.169 2.327-.346 3.525-.53a1858.026 1858.026 0 0 0 6.818-1.06c.123 0 .284-.1.484-.3.2-.199.376-.422.53-.667.153-.246.253-.484.299-.715.046-.23-.023-.391-.207-.483-.154-.062-.453-.139-.899-.23-.445-.093-.837-.124-1.174-.093a64.42 64.42 0 0 0-2.281.253c-.845.108-1.705.223-2.58.346-.875.123-1.72.238-2.534.346-.814.107-1.497.192-2.05.253.43-.553.906-1.175 1.428-1.866a38.648 38.648 0 0 0 1.52-2.166c.492-.753.937-1.498 1.337-2.235.399-.737.721-1.413.967-2.027.43-1.137.445-2.35.046-3.64-.184-.37-.468-.707-.852-1.014-.384-.308-.868-.538-1.451-.692a9.562 9.562 0 0 0-2.65 0c-.875.123-1.704.315-2.487.576a9.944 9.944 0 0 0-2.073.945c-.6.369-1.037.722-1.313 1.06a4.787 4.787 0 0 0-.185.599c-.061.246-.076.445-.046.599 0 .061.046.154.138.276a1.467 1.467 0 0 0 1.014.553c.246.031.553-.046.921-.23.277-.123.6-.269.968-.438.369-.169.775-.33 1.22-.484.446-.153.9-.291 1.36-.414.46-.123.906-.2 1.336-.23.307-.032.576-.04.806-.024.23.015.422.085.576.207.092.062.154.208.184.438.031.23 0 .469-.092.715-.706 1.72-1.681 3.448-2.925 5.184a56.883 56.883 0 0 1-3.801 4.769c-.338.338-.522.583-.553.737-.03.154-.046.261-.046.323.061.43.238.844.53 1.244.292.4.652.568 1.082.507l-.127.011Z" fill="#161408"/></svg>